<?xml version="1.0" standalone="no"?>
<!DOCTYPE svg PUBLIC "-//W3C//DTD SVG 1.1//EN" "http://www.w3.org/Graphics/SVG/1.1/DTD/svg11.dtd" >
<svg xmlns="http://www.w3.org/2000/svg" xmlns:xlink="http://www.w3.org/1999/xlink" version="1.1">
<metadata></metadata>
<defs>
<font id="yummobold" horiz-adv-x="1093" >
<font-face units-per-em="2048" ascent="1638" descent="-410" />
<missing-glyph horiz-adv-x="454" />
<glyph horiz-adv-x="0" />
<glyph horiz-adv-x="682" />
<glyph unicode=" "  horiz-adv-x="454" />
<glyph unicode="&#x09;" horiz-adv-x="454" />
<glyph unicode="&#xa0;" horiz-adv-x="454" />
<glyph unicode="!" horiz-adv-x="548" d="M141 74v121q0 73 74 73h119q74 0 74 -73v-121q0 -74 -74 -74h-119q-74 0 -74 74zM147 1356q-3 78 76 78h103q78 0 75 -78l-26 -889q-2 -37 -18 -53.5t-52 -16.5h-61q-36 0 -52 16.5t-18 53.5z" />
<glyph unicode="&#x22;" horiz-adv-x="802" d="M109 1368q-3 32 15.5 49t51.5 17h103q33 0 51.5 -17t15.5 -49l-33 -455q-1 -26 -17 -40.5t-38 -14.5h-61q-22 0 -38.5 14.5t-17.5 40.5zM457 1368q-3 32 15.5 49t51.5 17h103q33 0 51.5 -17t15.5 -49l-32 -455q-1 -26 -17.5 -40.5t-38.5 -14.5h-61q-22 0 -38.5 14.5 t-17.5 40.5z" />
<glyph unicode="#" d="M31 424l8 65q9 66 74 66h102l33 324h-103q-68 0 -59 65l8 66q9 65 74 65h100l33 293q6 66 70 66h65q68 0 62 -66l-33 -293h231l33 293q6 66 70 66h65q68 0 62 -66l-33 -293h108q67 0 58 -65l-8 -66q-9 -65 -72 -65h-107l-32 -324h106q67 0 58 -66l-9 -65q-9 -66 -71 -66 h-105l-31 -292q-6 -66 -69 -66h-66q-67 0 -61 66l31 292h-232l-31 -292q-6 -66 -69 -66h-66q-67 0 -61 66l31 292h-105q-68 0 -59 66zM412 555h231l33 324h-232z" />
<glyph unicode="$" d="M137 401v11q0 73 72 73h80q69 0 69 -61q0 -74 56.5 -112t132.5 -38q49 0 89.5 13t69.5 48t29 87q0 57 -32.5 96.5t-84 62.5t-114 42.5t-124.5 46.5t-113.5 65t-84 106.5t-32.5 162.5v12q0 124 78 212.5t216 114.5v113q0 66 66 66h74q65 0 65 -66v-113q136 -24 215.5 -107 t79.5 -192v-10q0 -73 -72 -73h-79q-68 0 -68 59q0 64 -52.5 101.5t-125.5 37.5q-75 0 -125.5 -38.5t-50.5 -112.5q0 -55 32.5 -93.5t84 -61t114 -42.5t124.5 -47.5t113.5 -66t84 -108.5t32.5 -165v-16q0 -127 -82 -213t-225 -109v-109q0 -65 -65 -65h-74q-66 0 -66 65v111 q-144 23 -225.5 107t-81.5 206z" />
<glyph unicode="%" horiz-adv-x="1427" d="M72 995v172q0 141 74.5 215t201.5 74t202 -74t75 -215v-172q0 -141 -75 -214.5t-202 -73.5t-201.5 73.5t-74.5 214.5zM248 1010q0 -136 100 -136q101 0 101 136v143q0 135 -101 135q-100 0 -100 -135v-143zM316 20.5q-11 20.5 3 51.5l607 1306q14 30 31.5 43t48.5 13h63 q31 0 42 -20.5t-3 -51.5l-606 -1307q-14 -30 -31.5 -42.5t-48.5 -12.5h-64q-31 0 -42 20.5zM803 266v172q0 141 74.5 215t201.5 74t202 -74t75 -215v-172q0 -141 -75 -215t-202 -74t-201.5 74t-74.5 215zM979 281q0 -136 100 -136q101 0 101 136v143q0 135 -101 135 q-100 0 -100 -135v-143z" />
<glyph unicode="&#x26;" horiz-adv-x="1136" d="M117 391v60q0 108 44.5 190t123.5 127q-152 95 -152 295v4q0 181 115.5 285t300.5 104t300.5 -104t115.5 -285q0 -76 -76 -76h-82q-32 0 -51 18t-19 50v2q0 85 -51.5 132.5t-136.5 47.5t-137 -47.5t-52 -132.5v-14q0 -85 52 -133t137 -48h72q75 0 75 -73v-64 q0 -74 -75 -74h-72q-98 0 -151.5 -54t-53.5 -148v-58q0 -94 53.5 -148t151.5 -54q91 0 143 46.5t60 127.5h-33q-76 0 -76 73v66q0 74 76 74h289q75 0 75 -74v-66q0 -73 -75 -73h-27q-7 -186 -123.5 -288t-308.5 -102q-198 0 -315 109t-117 305z" />
<glyph unicode="'" horiz-adv-x="454" d="M109 1368q-3 32 15.5 49t51.5 17h103q33 0 51.5 -17t15.5 -49l-33 -455q-1 -26 -17 -40.5t-38 -14.5h-61q-22 0 -38.5 14.5t-17.5 40.5z" />
<glyph unicode="(" horiz-adv-x="692" d="M180 98v1053q0 160 80.5 231.5t233.5 71.5h84q67 0 67 -65v-62q0 -65 -67 -65h-50q-120 0 -120 -121v-1032q0 -121 120 -121h50q67 0 67 -66v-61q0 -66 -67 -66h-84q-153 0 -233.5 71.5t-80.5 231.5z" />
<glyph unicode=")" horiz-adv-x="692" d="M47 -78q0 66 68 66h49q121 0 121 121v1032q0 121 -121 121h-49q-68 0 -68 65v62q0 65 68 65h84q153 0 233 -71.5t80 -231.5v-1053q0 -160 -80 -231.5t-233 -71.5h-84q-68 0 -68 66v61z" />
<glyph unicode="*" d="M72 1047l32 106q10 35 37.5 45.5t59.5 -6.5l278 -150l-53 312q-6 37 10.5 58.5t52.5 21.5h113q38 0 56 -21.5t10 -58.5l-54 -312l279 150q32 17 59 6.5t37 -45.5l33 -106q21 -74 -53 -86l-312 -48l226 -219q28 -26 26.5 -53t-32.5 -49l-91 -64q-64 -45 -100 25l-139 281 l-139 -281q-17 -34 -43.5 -40.5t-57.5 15.5l-90 64q-31 22 -32.5 49t26.5 53l225 219l-311 48q-74 12 -53 86z" />
<glyph unicode="+" d="M74 678v78q0 65 65 65h303v303q0 66 66 66h78q65 0 65 -66v-303h303q66 0 66 -65v-78q0 -66 -66 -66h-303v-303q0 -65 -65 -65h-78q-66 0 -66 65v303h-303q-65 0 -65 66z" />
<glyph unicode="," horiz-adv-x="495" d="M70 -207l65 402q12 73 84 73h94q34 0 49.5 -22t2.5 -62l-127 -397q-15 -49 -66 -49h-53q-24 0 -38.5 14.5t-10.5 40.5z" />
<glyph unicode="-" horiz-adv-x="665" d="M82 580v86q0 65 65 65h371q66 0 66 -65v-86q0 -66 -66 -66h-371q-65 0 -65 66z" />
<glyph unicode="." horiz-adv-x="495" d="M115 74v121q0 73 73 73h119q74 0 74 -73v-121q0 -74 -74 -74h-119q-73 0 -73 74z" />
<glyph unicode="/" horiz-adv-x="813" d="M8.5 -98.5q-13.5 24.5 3.5 59.5l582 1428q18 36 37 50.5t55 14.5h68q37 0 50.5 -24.5t-3.5 -59.5l-582 -1427q-18 -37 -37.5 -51.5t-54.5 -14.5h-68q-37 0 -50.5 24.5z" />
<glyph unicode="0" d="M119 410v614q0 210 118 321t310 111t310 -111t118 -321v-614q0 -210 -118 -321.5t-310 -111.5t-310 111.5t-118 321.5zM346 432q0 -239 201 -239t201 239v569q0 240 -201 240t-201 -240v-569z" />
<glyph unicode="1" d="M260 74v67q0 74 76 74h168v969h-176q-32 0 -50 17.5t-18 49.5v52q0 34 14 52t48 25l163 39q68 15 113 15h57q76 0 76 -74v-1145h168q76 0 76 -74v-67q0 -74 -76 -74h-563q-76 0 -76 74z" />
<glyph unicode="2" d="M129 74v121q0 81 21.5 151t58 121.5t83.5 96.5t99.5 81t104.5 69.5t99 68.5t83.5 71.5t58 84t21.5 101.5v2q0 97 -52.5 148t-140.5 51t-140 -51t-52 -148v-24q0 -76 -76 -76h-76q-76 0 -76 76v31q0 190 115.5 298.5t304.5 108.5t304.5 -108.5t115.5 -298.5v-9 q0 -75 -21.5 -140.5t-58 -114t-83.5 -92t-99 -79t-104.5 -69.5t-99.5 -69t-83.5 -72.5t-58 -84.5t-21.5 -100v-4h553q76 0 76 -74v-67q0 -74 -76 -74h-704q-76 0 -76 74z" />
<glyph unicode="3" d="M115 391q0 76 73 76h88q66 0 66 -68v-4q0 -94 53.5 -148t151.5 -54t151.5 54t53.5 148v37q0 94 -53.5 148.5t-151.5 54.5h-92q-76 0 -76 74v63q0 74 76 74h92q85 0 136.5 47.5t51.5 132.5v35q0 85 -51.5 132.5t-136.5 47.5t-137 -47.5t-52 -132.5v-2q0 -32 -18.5 -50 t-50.5 -18h-82q-76 0 -76 76q0 181 115.5 285t300.5 104t300.5 -104t115.5 -285v-4q0 -103 -42.5 -182.5t-117.5 -128.5q83 -45 129.5 -128t46.5 -194v-39q0 -196 -117 -305t-315 -109t-315 109t-117 305z" />
<glyph unicode="4" d="M102 360v76q0 9 1 18t1.5 15.5t3 15t4 13t5 14t5 12.5t6 13.5t5.5 13.5l363 827q24 56 86 56h98q34 0 47 -24.5t-2 -59.5l-375 -848h344v438q0 74 76 74h76q76 0 76 -74v-438h67q76 0 76 -74v-68q0 -73 -76 -73h-67v-211q0 -76 -76 -76h-76q-76 0 -76 76v211h-516 q-76 0 -76 73z" />
<glyph unicode="5" d="M123 348q0 74 76 74h84q67 0 67 -66q0 -32 9 -59t30 -51.5t62.5 -38.5t99.5 -14q201 0 201 239v92q0 240 -201 240q-68 0 -120.5 -31t-74.5 -96q-12 -37 -65 -37h-72q-37 0 -56 19.5t-18 56.5l31 684q3 74 78 74h616q76 0 76 -74v-68q0 -73 -76 -73h-483l-14 -318 q87 78 229 78q169 0 273 -108t104 -312v-149q0 -210 -118 -321.5t-310 -111.5q-197 0 -312.5 103.5t-115.5 267.5z" />
<glyph unicode="6" d="M119 410v614q0 210 118 321t310 111q187 0 302.5 -101.5t115.5 -269.5q0 -73 -76 -73h-84q-68 0 -68 65q0 64 -50.5 114t-139.5 50q-201 0 -201 -240v-198q85 104 252 104q169 0 273 -108t104 -312v-77q0 -210 -118 -321.5t-310 -111.5t-310 111.5t-118 321.5zM346 432 q0 -239 201 -239t201 239v21q0 239 -201 239t-201 -239v-21z" />
<glyph unicode="7" d="M102 1294v66q0 74 76 74h756q76 0 76 -74v-80q0 -45 -31 -117l-485 -1108q-13 -29 -30.5 -42t-51.5 -13h-107q-34 0 -46 24.5t3 59.5l506 1137h-590q-76 0 -76 73z" />
<glyph unicode="8" d="M102 375v33q0 239 177 333q-160 98 -160 312v24q0 181 115.5 280t312.5 99t312.5 -99t115.5 -280v-24q0 -215 -162 -312q178 -95 178 -333v-33q0 -197 -120 -297.5t-324 -100.5t-324.5 100.5t-120.5 297.5zM332 397q0 -100 56 -152t159 -52t159 52t56 152v33 q0 100 -56.5 152.5t-158.5 52.5t-158.5 -52.5t-56.5 -152.5v-33zM346 1030q0 -90 54.5 -137t146.5 -47t146.5 47t54.5 137v29q0 90 -54.5 137t-146.5 47t-146.5 -47t-54.5 -137v-29z" />
<glyph unicode="9" d="M119 956v68q0 210 118 321t310 111t310 -111t118 -321v-614q0 -210 -118 -321.5t-310 -111.5q-187 0 -302.5 101.5t-115.5 269.5q0 74 76 74h84q67 0 67 -66q0 -64 51 -113.5t140 -49.5q201 0 201 239v209q-85 -104 -252 -104q-169 0 -273 107.5t-104 311.5zM346 991 q0 -239 201 -239t201 239v10q0 240 -201 240t-201 -240v-10z" />
<glyph unicode=":" horiz-adv-x="495" d="M115 74v121q0 73 73 73h119q74 0 74 -73v-121q0 -74 -74 -74h-119q-73 0 -73 74zM115 823v121q0 74 73 74h119q74 0 74 -74v-121q0 -73 -74 -73h-119q-73 0 -73 73z" />
<glyph unicode=";" horiz-adv-x="495" d="M70 -207l65 402q12 73 84 73h94q34 0 49.5 -22t2.5 -62l-127 -397q-15 -49 -66 -49h-53q-24 0 -38.5 14.5t-10.5 40.5zM115 823v121q0 74 73 74h119q74 0 74 -74v-121q0 -73 -74 -73h-119q-73 0 -73 73z" />
<glyph unicode="&#x3c;" d="M106 684v76q0 36 15 56.5t51 35.5l727 313q35 15 60.5 1t25.5 -50v-90q0 -36 -14.5 -56t-50.5 -34l-531 -215l531 -213q36 -14 50.5 -34t14.5 -56v-90q0 -36 -25.5 -50t-60.5 1l-727 313q-36 15 -51 35.5t-15 56.5z" />
<glyph unicode="=" d="M74 459v78q0 65 65 65h815q66 0 66 -65v-78q0 -66 -66 -66h-815q-65 0 -65 66zM74 897v78q0 65 65 65h815q66 0 66 -65v-78q0 -66 -66 -66h-815q-65 0 -65 66z" />
<glyph unicode="&#x3e;" d="M106 328v90q0 36 15 56t51 34l530 213l-530 215q-36 14 -51 34t-15 56v90q0 36 26 50t61 -1l727 -313q36 -15 50.5 -35.5t14.5 -56.5v-76q0 -36 -14.5 -56.5t-50.5 -35.5l-727 -313q-35 -15 -61 -1t-26 50z" />
<glyph unicode="?" horiz-adv-x="847" d="M47 1114q0 152 97.5 247t261.5 95q160 0 259 -93.5t99 -268.5v-13q0 -68 -17.5 -125t-45.5 -97t-62 -75.5t-68 -68t-62 -65.5t-45.5 -77.5t-17.5 -95.5v-6q0 -74 -73 -74h-54q-73 0 -73 74v4q0 72 16.5 133t42.5 104.5t57.5 81t63.5 69.5t58 63.5t42.5 70.5t16.5 82v6 q0 164 -137 164q-69 0 -103.5 -41t-34.5 -104q0 -64 -73 -64h-74q-74 0 -74 74zM213 74v121q0 73 74 73h119q73 0 73 -73v-121q0 -74 -73 -74h-119q-74 0 -74 74z" />
<glyph unicode="@" horiz-adv-x="1409" d="M113 340v508q0 142 46 256.5t127 188t188 112.5t231 39t231 -39t187.5 -112.5t126.5 -188t46 -256.5v-508q0 -142 -46 -256.5t-126.5 -188t-187.5 -112.5t-231 -39t-231 39t-188 112.5t-127 188t-46 256.5zM274 344q0 -92 23.5 -167t64 -125.5t96 -85t117 -49.5 t130.5 -15q87 0 162 25t136 76t96.5 138.5t35.5 202.5v500q0 115 -35.5 202.5t-96.5 138.5t-136 76t-162 25q-69 0 -130.5 -15t-117 -49.5t-96 -85t-64 -125.5t-23.5 -167v-500zM428 418v4q0 126 71 193t214 67h92v51q0 131 -100 131q-44 0 -67.5 -24t-23.5 -60 q0 -51 -51 -51h-65q-60 0 -60 59q0 107 72 174.5t195 67.5q127 0 201.5 -74.5t74.5 -216.5v-293q0 -141 -74.5 -214.5t-201.5 -73.5t-202 68t-75 192zM604 432q0 -108 101 -108q47 0 73.5 29.5t26.5 88.5v99h-100q-101 0 -101 -109z" />
<glyph unicode="A" horiz-adv-x="1179" d="M145 78v930q0 145 59 248t158 151.5t228 48.5q198 0 321 -115.5t123 -332.5v-930q0 -78 -78 -78h-79q-78 0 -78 78v385h-418v-385q0 -78 -78 -78h-80q-78 0 -78 78zM381 686h418v297q0 250 -209 250t-209 -250v-297z" />
<glyph unicode="B" horiz-adv-x="1124" d="M160 78v1278q0 78 78 78h385q189 0 283.5 -92.5t94.5 -286.5v-2q0 -233 -159 -312q180 -74 180 -319v-43q0 -194 -95 -286.5t-284 -92.5h-405q-78 0 -78 78zM395 223h211q96 0 138 39t42 141v35q0 108 -44 148.5t-144 40.5h-203v-404zM395 842h183q100 0 144 40t44 148 q0 102 -42 141t-138 39h-191v-368z" />
<glyph unicode="C" horiz-adv-x="1103" d="M125 426v582q0 217 123 332.5t321 115.5q190 0 311 -117.5t121 -300.5v-6q0 -78 -77 -78h-88q-70 0 -70 70q0 92 -53 150.5t-142 58.5q-95 0 -153 -58.5t-58 -191.5v-532q0 -133 58 -191.5t153 -58.5q89 0 142 58.5t53 150.5q0 69 70 69h88q77 0 77 -78v-6 q0 -183 -121 -300.5t-311 -117.5q-198 0 -321 116t-123 333z" />
<glyph unicode="D" horiz-adv-x="1155" d="M160 78v1278q0 78 78 78h350q131 0 228.5 -43t156.5 -140.5t59 -242.5v-582q0 -145 -59 -242.5t-156.5 -140.5t-228.5 -43h-350q-78 0 -78 78zM395 223h187q47 0 82.5 9.5t67.5 33t48.5 70t16.5 115.5v532q0 69 -16.5 115.5t-48.5 70t-67.5 32.5t-82.5 9h-187v-987z" />
<glyph unicode="E" horiz-adv-x="1044" d="M160 78v1278q0 78 78 78h649q78 0 78 -78v-68q0 -78 -78 -78h-492v-368h379q78 0 78 -78v-68q0 -78 -78 -78h-379v-395h492q78 0 78 -78v-67q0 -78 -78 -78h-649q-78 0 -78 78z" />
<glyph unicode="F" horiz-adv-x="970" d="M160 78v1278q0 78 78 78h612q78 0 78 -78v-68q0 -78 -78 -78h-455v-389h342q78 0 78 -78v-67q0 -78 -78 -78h-342v-520q0 -78 -78 -78h-79q-78 0 -78 78z" />
<glyph unicode="G" horiz-adv-x="1118" d="M125 426v582q0 217 123 332.5t321 115.5q190 0 311 -117.5t121 -300.5v-6q0 -78 -77 -78h-88q-70 0 -70 70q0 92 -53 150.5t-142 58.5q-95 0 -153 -58.5t-58 -191.5v-532q0 -250 209 -250t209 250v63h-110q-78 0 -78 78v67q0 78 78 78h268q78 0 78 -78v-233 q0 -217 -123.5 -333t-321.5 -116t-321 116t-123 333z" />
<glyph unicode="H" horiz-adv-x="1208" d="M160 78v1278q0 78 78 78h79q78 0 78 -78v-514h418v514q0 78 78 78h80q78 0 78 -78v-1278q0 -78 -78 -78h-80q-78 0 -78 78v540h-418v-540q0 -78 -78 -78h-79q-78 0 -78 78z" />
<glyph unicode="I" horiz-adv-x="555" d="M160 78v1278q0 78 78 78h79q78 0 78 -78v-1278q0 -78 -78 -78h-79q-78 0 -78 78z" />
<glyph unicode="J" horiz-adv-x="1011" d="M47 389v12q0 78 78 78h88q70 0 70 -69q0 -209 174 -209t174 209v946q0 78 78 78h79q78 0 78 -78v-967q0 -199 -113.5 -305.5t-295.5 -106.5t-296 106.5t-114 305.5z" />
<glyph unicode="K" horiz-adv-x="1132" d="M160 78v1278q0 78 78 78h79q78 0 78 -78v-555l400 577q21 29 43 42.5t59 13.5h113q37 0 49 -34q4 -12 4 -24q0 -20 -14 -37l-385 -514l393 -735q17 -29 3 -59.5t-52 -30.5h-103q-40 0 -62.5 14t-39.5 49l-287 566l-121 -162v-389q0 -78 -78 -78h-79q-78 0 -78 78z" />
<glyph unicode="L" horiz-adv-x="954" d="M160 78v1278q0 78 78 78h79q78 0 78 -78v-1133h441q77 0 77 -78v-67q0 -78 -77 -78h-598q-78 0 -78 78z" />
<glyph unicode="M" horiz-adv-x="1753" d="M145 78v979q0 193 110.5 296t287.5 103q112 0 198.5 -44.5t135.5 -129.5q100 174 333 174q177 0 287.5 -103t110.5 -296v-979q0 -78 -78 -78h-80q-78 0 -78 78v930q0 225 -188 225q-85 0 -138 -52.5t-53 -172.5v-930q0 -78 -78 -78h-79q-78 0 -78 78v930q0 120 -52 172.5 t-137 52.5q-188 0 -188 -225v-930q0 -78 -78 -78h-80q-78 0 -78 78z" />
<glyph unicode="N" horiz-adv-x="1179" d="M145 78v930q0 145 59 248t158 151.5t228 48.5q198 0 321 -115.5t123 -332.5v-930q0 -78 -78 -78h-79q-78 0 -78 78v905q0 250 -209 250t-209 -250v-905q0 -78 -78 -78h-80q-78 0 -78 78z" />
<glyph unicode="O" horiz-adv-x="1138" d="M125 426v582q0 217 123 332.5t321 115.5q129 0 228 -48.5t158 -151.5t59 -248v-582q0 -217 -123.5 -333t-321.5 -116t-321 116t-123 333zM360 451q0 -250 209 -250t209 250v532q0 250 -209 250t-209 -250v-532z" />
<glyph unicode="P" horiz-adv-x="1097" d="M160 78v1278q0 78 78 78h378q189 0 294.5 -103t105.5 -297v-92q0 -194 -105.5 -296.5t-294.5 -102.5h-221v-465q0 -78 -78 -78h-79q-78 0 -78 78zM395 766h191q99 0 146.5 44t47.5 151v55q0 107 -47.5 150.5t-146.5 43.5h-191v-444z" />
<glyph unicode="Q" horiz-adv-x="1138" d="M125 426v582q0 217 123 332.5t321 115.5q129 0 228 -48.5t158 -151.5t59 -248v-582q0 -163 -71 -270t-195 -150v-45q0 -57 24.5 -81.5t81.5 -24.5q25 0 49 6q35 9 54.5 -9t19.5 -55v-63q0 -68 -74 -80q-37 -6 -74 -6q-149 0 -227 69.5t-78 225.5v37q-181 13 -290 127 t-109 319zM360 451q0 -250 209 -250t209 250v532q0 250 -209 250t-209 -250v-532z" />
<glyph unicode="R" horiz-adv-x="1142" d="M160 78v1278q0 78 78 78h395q189 0 284 -92.5t95 -286.5v-29q0 -240 -174 -317q174 -77 174 -318v-313q0 -78 -78 -78h-80q-78 0 -78 78v311q0 120 -49 164.5t-160 44.5h-172v-520q0 -78 -78 -78h-79q-78 0 -78 78zM395 821h193q100 0 144 40.5t44 148.5v20 q0 102 -42 141t-138 39h-201v-389z" />
<glyph unicode="S" horiz-adv-x="1067" d="M102 371v8q0 78 78 78h88q70 0 70 -70v-6q0 -91 54.5 -135.5t142.5 -44.5t142 44t54 134v2q0 63 -34 107.5t-88.5 72.5t-120 53t-131 58.5t-120 79t-88.5 125t-34 186.5v2q0 182 115 286.5t302 104.5t302.5 -105.5t115.5 -287.5v-4q0 -78 -78 -78h-88q-69 0 -69 70v6 q0 84 -50.5 130t-132.5 46t-132 -46t-50 -130v-2q0 -50 21 -88t57 -63.5t82 -47t97.5 -42t102.5 -44t97 -58t82 -78.5t57 -111.5t21 -151.5v-2q0 -184 -120.5 -288t-318.5 -104q-188 0 -307 106.5t-119 287.5z" />
<glyph unicode="T" horiz-adv-x="952" d="M41 1288v68q0 78 78 78h715q77 0 77 -78v-68q0 -78 -77 -78h-240v-1132q0 -78 -78 -78h-80q-78 0 -78 78v1132h-239q-78 0 -78 78z" />
<glyph unicode="U" horiz-adv-x="1179" d="M145 426v930q0 78 78 78h80q78 0 78 -78v-905q0 -250 209 -250t209 250v905q0 78 78 78h79q78 0 78 -78v-930q0 -217 -123 -333t-321 -116t-321.5 116t-123.5 333z" />
<glyph unicode="V" horiz-adv-x="1132" d="M63 1346q-3 13 -3 25q0 21 10 37q16 26 53 26h100q76 0 90 -70l256 -1137l256 1137q14 70 90 70h95q36 0 52 -26q10 -16 10 -36q0 -12 -3 -26l-307 -1235q-27 -111 -141 -111h-109q-114 0 -141 111z" />
<glyph unicode="W" horiz-adv-x="1751" d="M145 377v979q0 78 78 78h80q78 0 78 -78v-930q0 -225 188 -225q85 0 137 52.5t52 172.5v930q0 78 78 78h79q78 0 78 -78v-930q0 -120 52 -172.5t137 -52.5q188 0 188 225v930q0 78 78 78h80q78 0 78 -78v-979q0 -193 -110.5 -296.5t-287.5 -103.5q-112 0 -198.5 43 t-135.5 127q-49 -84 -134 -127t-197 -43q-177 0 -287.5 103.5t-110.5 296.5z" />
<glyph unicode="X" horiz-adv-x="1110" d="M73 31q-14 31 3 59l323 639l-309 614q-17 28 -3 59.5t52 31.5h101q39 0 61 -14t39 -50l217 -461l219 461q17 36 39.5 50t61.5 14h94q38 0 52 -31.5t-3 -59.5l-309 -612l323 -641q17 -28 3 -59t-52 -31h-100q-40 0 -62 14t-39 49l-233 490l-232 -490q-17 -36 -39 -49.5 t-61 -13.5h-94q-38 0 -52 31z" />
<glyph unicode="Y" horiz-adv-x="1126" d="M111 889v467q0 78 77 78h80q78 0 78 -78v-443q0 -258 217 -258t217 258v443q0 78 78 78h80q78 0 78 -78v-467q0 -186 -90 -299.5t-244 -145.5v-366q0 -78 -78 -78h-80q-78 0 -78 78v364q-155 32 -245 145.5t-90 301.5z" />
<glyph unicode="Z" horiz-adv-x="1005" d="M76 78v59q0 63 30 115l545 958h-477q-78 0 -78 78v68q0 78 78 78h678q78 0 78 -78v-60q0 -60 -31 -114l-545 -959h498q78 0 78 -78v-67q0 -78 -78 -78h-698q-78 0 -78 78z" />
<glyph unicode="[" horiz-adv-x="692" d="M180 -129v1509q0 74 76 74h322q67 0 67 -65v-62q0 -65 -67 -65h-170v-1274h170q67 0 67 -66v-61q0 -66 -67 -66h-322q-76 0 -76 76z" />
<glyph unicode="\" horiz-adv-x="813" d="M8.5 1429.5q13.5 24.5 50.5 24.5h68q36 0 55 -14.5t37 -50.5l582 -1428q17 -35 3.5 -59.5t-50.5 -24.5h-68q-35 0 -54.5 14.5t-37.5 51.5l-582 1427q-17 35 -3.5 59.5z" />
<glyph unicode="]" horiz-adv-x="692" d="M47 -78q0 66 68 66h170v1274h-170q-68 0 -68 65v62q0 65 68 65h321q76 0 76 -74v-1509q0 -76 -76 -76h-321q-68 0 -68 66v61z" />
<glyph unicode="^" d="M88.5 666q-13.5 25 3.5 59l320 643q18 35 39 50.5t57 15.5h78q36 0 57 -15.5t39 -50.5l319 -643q17 -34 3.5 -59t-50.5 -25h-86q-36 0 -57.5 15t-36.5 51l-227 485l-228 -485q-15 -36 -36.5 -51t-57.5 -15h-86q-37 0 -50.5 25z" />
<glyph unicode="_" horiz-adv-x="1024" d="M0 -104h1024v-166h-1024v166z" />
<glyph unicode="`" horiz-adv-x="681" d="M178 1487q10 22 39 22h107q36 0 55 -13.5t33 -45.5l90 -188q11 -23 1 -43.5t-34 -20.5h-76q-32 0 -49.5 11t-38.5 42l-121 189q-16 25 -6 47z" />
<glyph unicode="a" horiz-adv-x="919" d="M92 303v4q0 155 93.5 240.5t265.5 85.5h137v92q0 170 -137 170q-56 0 -86.5 -31t-30.5 -78q0 -63 -64 -63h-84q-73 0 -73 74q0 133 92.5 219t245.5 86q160 0 259 -93.5t99 -269.5v-399q0 -176 -99 -269.5t-259 -93.5q-159 0 -259 87.5t-100 238.5zM313 326q0 -72 38 -107 t100 -35q137 0 137 170v113h-137q-62 0 -100 -34.5t-38 -106.5z" />
<glyph unicode="b" horiz-adv-x="958" d="M131 340v1040q0 74 74 74h74q73 0 73 -74v-364q71 86 203 86t212.5 -86t80.5 -252v-424q0 -178 -99 -270.5t-260 -92.5t-259.5 92.5t-98.5 270.5zM352 354q0 -170 137 -170q138 0 138 170v371q0 170 -138 170q-137 0 -137 -170v-371z" />
<glyph unicode="c" horiz-adv-x="909" d="M111 340v399q0 176 99 269.5t259 93.5q154 0 251 -90.5t97 -241.5q0 -74 -74 -74h-84q-63 0 -63 64q0 62 -34.5 98.5t-92.5 36.5q-137 0 -137 -170v-371q0 -170 137 -170q58 0 92.5 36.5t34.5 98.5q0 64 63 64h84q74 0 74 -74q0 -151 -97 -241.5t-251 -90.5 q-160 0 -259 93.5t-99 269.5z" />
<glyph unicode="d" horiz-adv-x="958" d="M111 340v424q0 166 80 252t212 86t203 -86v364q0 74 74 74h74q73 0 73 -74v-1040q0 -178 -98.5 -270.5t-259.5 -92.5t-259.5 92.5t-98.5 270.5zM332 354q0 -170 137 -170t137 170v371q0 170 -137 170t-137 -170v-371z" />
<glyph unicode="e" horiz-adv-x="935" d="M111 340v399q0 176 99 269.5t259 93.5t259 -93.5t99 -269.5v-174q0 -73 -73 -73h-422v-138q0 -170 137 -170q58 0 92.5 31t34.5 84q0 63 63 63h84q74 0 74 -73q0 -139 -96 -225.5t-252 -86.5q-160 0 -259 93.5t-99 269.5zM332 657h274v68q0 170 -137 170t-137 -170v-68z " />
<glyph unicode="f" horiz-adv-x="665" d="M139 74v1069q0 169 80.5 244t239.5 75q67 0 108 -8q32 -7 48 -23t16 -51v-59q0 -38 -19 -58t-55 -14q-38 6 -68 6q-72 0 -100.5 -28.5t-28.5 -100.5v-47h197q74 0 74 -73v-60q0 -74 -74 -74h-197v-798q0 -74 -73 -74h-74q-74 0 -74 74z" />
<glyph unicode="g" horiz-adv-x="954" d="M109 422v317q0 176 99 269.5t259 93.5t259 -93.5t99 -269.5v-755q0 -175 -98.5 -264t-259.5 -89q-159 0 -253.5 84.5t-94.5 210.5q0 74 74 74h83q64 0 64 -63q0 -47 32 -78t95 -31q65 0 101 34.5t36 125.5v182q-71 -86 -203 -86t-212 86t-80 252zM330 461 q0 -170 137 -170t137 170v264q0 170 -137 170t-137 -170v-264z" />
<glyph unicode="h" horiz-adv-x="987" d="M141 74v1306q0 74 74 74h74q73 0 73 -74v-364q71 86 203 86t212.5 -86t80.5 -252v-690q0 -74 -74 -74h-73q-74 0 -74 74v651q0 170 -137 170q-138 0 -138 -170v-651q0 -74 -73 -74h-74q-74 0 -74 74z" />
<glyph unicode="i" horiz-adv-x="503" d="M141 74v932q0 73 74 73h74q73 0 73 -73v-932q0 -74 -73 -74h-74q-74 0 -74 74zM141 1290v70q0 74 74 74h74q73 0 73 -74v-70q0 -73 -73 -73h-74q-74 0 -74 73z" />
<glyph unicode="j" horiz-adv-x="503" d="M-47 -213q0 39 17 60t48 14q36 -8 58 -8q65 0 65 79v1074q0 73 74 73h74q73 0 73 -73v-1080q0 -147 -70.5 -213.5t-187.5 -66.5q-47 0 -86 8q-35 8 -50 23.5t-15 50.5v59zM141 1290v70q0 74 74 74h74q73 0 73 -74v-70q0 -73 -73 -73h-74q-74 0 -74 73z" />
<glyph unicode="k" horiz-adv-x="952" d="M141 74v1308q0 74 74 74h74q73 0 73 -74v-745l263 387q20 29 42 42t60 13h104q37 0 48 -28.5t-11 -53.5l-276 -354l287 -563q16 -29 3.5 -54.5t-48.5 -25.5h-95q-39 0 -59.5 12.5t-34.5 42.5l-194 404l-89 -115v-270q0 -74 -73 -74h-74q-74 0 -74 74z" />
<glyph unicode="l" horiz-adv-x="591" d="M133 272v1108q0 74 74 74h74q73 0 73 -74v-1091q0 -48 22 -69t56 -21q19 0 57 6q36 6 55 -14t19 -58v-59q0 -35 -16 -51.5t-49 -22.5q-39 -8 -103 -8q-126 0 -194 65t-68 215z" />
<glyph unicode="m" horiz-adv-x="1437" d="M129 74v702q0 157 89 241.5t233 84.5q90 0 160 -40t108 -114q39 74 107.5 114t160.5 40q144 0 233 -84.5t89 -241.5v-702q0 -74 -74 -74h-74q-74 0 -74 74v661q0 160 -129 160t-129 -160v-661q0 -74 -73 -74h-74q-74 0 -74 74v661q0 160 -129 160t-129 -160v-661 q0 -74 -74 -74h-73q-74 0 -74 74z" />
<glyph unicode="n" horiz-adv-x="974" d="M129 74v665q0 176 99 269.5t259 93.5t259.5 -94t99.5 -269v-665q0 -74 -74 -74h-74q-73 0 -73 74v651q0 170 -138 170q-137 0 -137 -170v-651q0 -74 -74 -74h-73q-74 0 -74 74z" />
<glyph unicode="o" horiz-adv-x="937" d="M111 340v399q0 176 99 269.5t259 93.5t259 -93.5t99 -269.5v-399q0 -178 -98.5 -270.5t-259.5 -92.5t-259.5 92.5t-98.5 270.5zM332 354q0 -170 137 -170t137 170v371q0 170 -137 170t-137 -170v-371z" />
<glyph unicode="p" horiz-adv-x="958" d="M131 -272v1011q0 178 98.5 270.5t259.5 92.5t260 -92.5t99 -270.5v-424q0 -166 -80.5 -252t-212.5 -86t-203 86v-335q0 -74 -73 -74h-74q-74 0 -74 74zM352 354q0 -170 137 -170q138 0 138 170v371q0 170 -138 170q-137 0 -137 -170v-371z" />
<glyph unicode="q" horiz-adv-x="956" d="M111 315v424q0 178 98.5 270.5t259.5 92.5t259.5 -92.5t98.5 -270.5v-1011q0 -74 -73 -74h-74q-74 0 -74 74v335q-71 -86 -203 -86t-212 86t-80 252zM332 354q0 -170 137 -170t137 170v371q0 170 -137 170t-137 -170v-371z" />
<glyph unicode="r" horiz-adv-x="649" d="M129 74v696q0 169 82 244.5t242 75.5q58 0 104 -9q32 -7 48 -23t16 -50v-60q0 -38 -19 -57.5t-55 -13.5q-38 6 -64 6q-71 0 -102 -29t-31 -100v-680q0 -74 -74 -74h-73q-74 0 -74 74z" />
<glyph unicode="s" horiz-adv-x="882" d="M92 266v13q0 73 74 73h84q63 0 63 -63q0 -52 34 -78.5t93 -26.5q129 0 129 109v4q0 42 -26 73t-67 50.5t-90.5 37.5t-99.5 43.5t-91 59.5t-67 93.5t-26 138.5q0 144 92 226.5t244 82.5q148 0 242 -83.5t94 -207.5q0 -74 -74 -74h-84q-63 0 -63 64q0 44 -30.5 69t-84.5 25 q-114 0 -114 -102v-5q0 -43 26 -74t67 -51t90.5 -39t99.5 -44.5t91 -60.5t67 -95t26 -139q0 -144 -97.5 -226t-253.5 -82q-152 0 -250 82.5t-98 206.5z" />
<glyph unicode="t" horiz-adv-x="667" d="M131 295v975q0 73 74 73h74q73 0 73 -73v-191h176q74 0 74 -73v-60q0 -74 -74 -74h-176v-561q0 -63 25 -87.5t88 -24.5q25 0 63 6q36 6 55 -14t19 -58v-59q0 -35 -15.5 -51.5t-47.5 -22.5q-41 -8 -105 -8q-151 0 -227 71t-76 232z" />
<glyph unicode="u" horiz-adv-x="974" d="M129 340v666q0 73 74 73h73q74 0 74 -73v-652q0 -170 137 -170q138 0 138 170v652q0 73 73 73h74q74 0 74 -73v-666q0 -175 -99.5 -269t-259.5 -94t-259 93.5t-99 269.5z" />
<glyph unicode="v" horiz-adv-x="927" d="M61 1001q-9 35 7 56.5t51 21.5h86q70 0 84 -59l178 -815l178 815q14 59 84 59h80q35 0 50.5 -21.5t6.5 -56.5l-227 -897q-27 -104 -131 -104h-88q-104 0 -131 104z" />
<glyph unicode="w" horiz-adv-x="1437" d="M129 303v703q0 73 74 73h73q74 0 74 -73v-662q0 -160 129 -160t129 160v662q0 73 74 73h74q73 0 73 -73v-662q0 -160 129 -160t129 160v662q0 73 74 73h74q74 0 74 -73v-703q0 -157 -89 -241.5t-233 -84.5q-189 0 -268 154q-38 -75 -107.5 -114.5t-160.5 -39.5 q-144 0 -233 84.5t-89 241.5z" />
<glyph unicode="x" horiz-adv-x="923" d="M72.5 25.5q-12.5 25.5 3.5 54.5l241 473l-227 446q-16 29 -3.5 54.5t48.5 25.5h90q39 0 59.5 -12.5t34.5 -42.5l146 -317l143 317q14 30 34.5 42.5t59.5 12.5h86q36 0 49 -25.5t-3 -54.5l-230 -446l244 -473q16 -29 3.5 -54.5t-48.5 -25.5h-90q-39 0 -60 12.5t-35 42.5 l-159 346l-158 -346q-14 -30 -34.5 -42.5t-59.5 -12.5h-86q-36 0 -48.5 25.5z" />
<glyph unicode="y" horiz-adv-x="985" d="M127 422v584q0 73 74 73h73q74 0 74 -73v-545q0 -170 137 -170q138 0 138 170v545q0 73 73 73h74q74 0 74 -73v-1022q0 -174 -98.5 -263.5t-260.5 -89.5q-159 0 -253.5 84.5t-94.5 210.5q0 74 74 74h84q63 0 63 -63q0 -47 32 -78t95 -31q65 0 101.5 34.5t36.5 125.5v182 q-71 -86 -203 -86t-212.5 86t-80.5 252z" />
<glyph unicode="z" horiz-adv-x="854" d="M72 74v43q0 57 30 106l406 649h-342q-74 0 -74 74v60q0 73 74 73h534q74 0 74 -73v-43q0 -56 -31 -107l-405 -649h362q74 0 74 -74v-59q0 -74 -74 -74h-555q-73 0 -73 74z" />
<glyph unicode="{" horiz-adv-x="651" d="M33 594v61q0 66 67 66q80 0 80 100v330q0 160 80.5 231.5t233.5 71.5h43q67 0 67 -65v-62q0 -65 -67 -65h-17q-61 0 -86.5 -25.5t-25.5 -87.5v-250q0 -119 -28 -183t-87 -91q59 -29 87 -93.5t28 -181.5v-250q0 -62 25 -87t87 -25h17q67 0 67 -66v-61q0 -66 -67 -66h-43 q-153 0 -233.5 71.5t-80.5 231.5v330q0 100 -80 100q-67 0 -67 66z" />
<glyph unicode="|" horiz-adv-x="1024" d="M412 -446v1916q0 66 65 66h70q65 0 65 -66v-1916q0 -66 -65 -66h-70q-65 0 -65 66z" />
<glyph unicode="}" horiz-adv-x="651" d="M47 -78q0 66 68 66h16q62 0 87.5 25.5t25.5 86.5v250q0 117 28 182t86 93q-58 27 -86 91t-28 183v250q0 61 -26 87t-87 26h-16q-68 0 -68 65v62q0 65 68 65h43q153 0 233 -71.5t80 -231.5v-330q0 -100 80 -100q67 0 67 -66v-61q0 -66 -67 -66q-80 0 -80 -100v-330 q0 -160 -80 -231.5t-233 -71.5h-43q-68 0 -68 66v61z" />
<glyph unicode="~" d="M74 604v103q0 36 10.5 57.5t40.5 46.5q87 72 221 72q55 0 113 -16t100.5 -35.5t99 -35.5t107.5 -16q49 0 85 18t85 58q29 24 56.5 14.5t27.5 -45.5v-102q0 -36 -10.5 -58t-40.5 -47q-86 -71 -221 -71q-69 0 -141.5 25.5t-143.5 51t-135 25.5q-49 0 -85 -18t-85 -58 q-29 -24 -56.5 -14.5t-27.5 45.5z" />
<glyph unicode="&#xa2;" d="M156 524v385q0 155 77.5 247t215.5 118v110q0 66 65 66h74q65 0 65 -66v-112q131 -25 207 -110t76 -212q0 -73 -76 -73h-82q-63 0 -63 63q0 60 -47.5 97.5t-116.5 37.5q-74 0 -124 -42t-50 -138v-356q0 -97 49.5 -139t124.5 -42q69 0 116.5 38t47.5 98q0 63 63 63h82 q76 0 76 -74q0 -128 -75.5 -213t-207.5 -110v-111q0 -65 -65 -65h-74q-65 0 -65 65v111q-138 24 -215.5 116t-77.5 248z" />
<glyph unicode="&#xa3;" d="M109 74v63q0 50 41 80q82 62 127.5 118t56.5 132h-158q-67 0 -67 65v80q0 66 67 66h117q-11 21 -44 71.5t-50 82.5t-33 94.5t-16 134.5v6q0 181 116 285t301 104q186 0 302 -104t116 -285q0 -76 -76 -76h-82q-32 0 -50.5 18t-18.5 50v2q0 84 -53 132t-138 48 t-137.5 -48.5t-52.5 -131.5q0 -64 15.5 -120t35.5 -90.5t47 -83.5t41 -89h279q67 0 67 -66v-80q0 -65 -67 -65h-252q-17 -134 -152 -252h498q76 0 76 -74v-67q0 -74 -76 -74h-705q-75 0 -75 74z" />
<glyph unicode="&#xa5;" d="M111 989v369q0 76 75 76h76q76 0 76 -76v-346q0 -240 209 -240t209 240v346q0 76 75 76h76q76 0 76 -76v-369q0 -178 -87 -285.5t-237 -136.5v-141h207q76 0 76 -74v-67q0 -74 -76 -74h-207v-135q0 -76 -75 -76h-74q-76 0 -76 76v135h-207q-75 0 -75 74v67q0 74 75 74 h207v141q-151 29 -237 136.5t-86 285.5z" />
<glyph unicode="&#xa8;" horiz-adv-x="681" d="M43 1292v82q0 74 76 74h80q75 0 75 -74v-82q0 -73 -75 -73h-80q-76 0 -76 73zM406 1292v82q0 74 75 74h80q76 0 76 -74v-82q0 -73 -76 -73h-80q-75 0 -75 73z" />
<glyph unicode="&#xa9;" horiz-adv-x="1384" d="M113 565v303q0 185 76.5 321.5t207 205.5t295.5 69t295.5 -69t207.5 -205.5t77 -321.5v-303q0 -185 -77 -321.5t-207.5 -205.5t-295.5 -69t-295.5 69t-207 205.5t-76.5 321.5zM262 561q0 -115 34.5 -203t95 -139.5t136 -77.5t164.5 -26t164.5 26t136 77.5t95 139.5 t34.5 203v311q0 115 -34.5 203t-95 140t-136 78t-164.5 26t-164.5 -26t-136 -78t-95 -140t-34.5 -203v-311zM444 553v328q0 119 69 182t181 63q107 0 176.5 -63t69.5 -166v-8q0 -41 -41 -41h-59q-49 0 -49 41q0 42 -28 69t-69 27q-45 0 -72.5 -25t-27.5 -79v-328 q0 -54 27.5 -79t72.5 -25q41 0 69 27t28 69q0 41 49 41h59q41 0 41 -41v-8q0 -103 -69.5 -166.5t-176.5 -63.5q-112 0 -181 63.5t-69 182.5z" />
<glyph unicode="&#xab;" horiz-adv-x="1118" d="M111 539q0 30 22 67l223 344q30 47 88 47h111q30 0 39.5 -24.5t-8.5 -50.5l-244 -383l244 -383q18 -26 8.5 -51t-39.5 -25h-111q-58 0 -88 47l-223 344q-22 37 -22 68zM520 539q0 29 23 67l223 344q30 47 88 47h111q30 0 39 -24.5t-9 -50.5l-243 -383l243 -383 q18 -26 9 -51t-39 -25h-111q-58 0 -88 47l-223 344q-23 38 -23 68z" />
<glyph unicode="&#xad;" horiz-adv-x="665" d="M82 580v86q0 65 65 65h371q66 0 66 -65v-86q0 -66 -66 -66h-371q-65 0 -65 66z" />
<glyph unicode="&#xae;" horiz-adv-x="1384" d="M113 565v303q0 185 76.5 321.5t207 205.5t295.5 69t295.5 -69t207.5 -205.5t77 -321.5v-303q0 -185 -77 -321.5t-207.5 -205.5t-295.5 -69t-295.5 69t-207 205.5t-76.5 321.5zM262 561q0 -115 34.5 -203t95 -139.5t136 -77.5t164.5 -26t164.5 26t136 77.5t95 139.5 t34.5 203v311q0 115 -34.5 203t-95 140t-136 78t-164.5 26t-164.5 -26t-136 -78t-95 -140t-34.5 -203v-311zM473 360v713q0 41 41 41h225q97 0 153 -52t56 -147v-32q0 -136 -106 -181q106 -43 106 -172v-170q0 -41 -41 -41h-67q-41 0 -41 41v181q0 47 -28.5 70.5t-72.5 23.5 h-75v-275q0 -41 -41 -41h-68q-41 0 -41 41zM623 768h100q76 0 76 70v65q0 70 -76 70h-100v-205z" />
<glyph unicode="&#xb4;" horiz-adv-x="681" d="M179 1218.5q-10 20.5 1 43.5l90 188q14 32 33 45.5t55 13.5h107q29 0 39 -22t-6 -47l-121 -189q-21 -31 -38.5 -42t-49.5 -11h-76q-24 0 -34 20.5z" />
<glyph unicode="&#xb8;" horiz-adv-x="681" d="M154 -199q0 29 20.5 38t40.5 -9q34 -29 86 -29q35 0 55.5 27t20.5 66q0 98 -35 163h127q57 -92 57 -207q0 -93 -56 -156t-157 -63q-79 0 -127 35q-32 22 -32 70v65z" />
<glyph unicode="&#xbb;" horiz-adv-x="1118" d="M124.5 105q-9.5 25 8.5 51l244 383l-244 383q-18 26 -8.5 50.5t39.5 24.5h110q58 0 88 -47l224 -344q22 -37 22 -67q0 -31 -22 -68l-224 -344q-30 -47 -88 -47h-110q-30 0 -39.5 25zM534 105q-9 25 9 51l243 383l-243 383q-18 26 -9 50.5t39 24.5h111q58 0 88 -47 l223 -344q23 -38 23 -67q0 -30 -23 -68l-223 -344q-30 -47 -88 -47h-111q-30 0 -39 25z" />
<glyph unicode="&#xc2;" horiz-adv-x="1179" d="M145 78v930q0 145 59 248t158 151.5t228 48.5q198 0 321 -115.5t123 -332.5v-930q0 -78 -78 -78h-79q-78 0 -78 78v385h-418v-385q0 -78 -78 -78h-80q-78 0 -78 78zM314 1561q-9 19 5 41l93 143q33 47 104 47h148q71 0 104 -47l92 -143q14 -22 5 -41t-36 -19h-77 q-30 0 -47 9.5t-39 35.5l-76 84l-76 -84q-22 -26 -39 -35.5t-47 -9.5h-78q-27 0 -36 19zM381 686h418v297q0 250 -209 250t-209 -250v-297z" />
<glyph unicode="&#xc7;" horiz-adv-x="1103" d="M125 426v582q0 217 123 332.5t321 115.5q190 0 311 -117.5t121 -300.5v-6q0 -78 -77 -78h-88q-70 0 -70 70q0 92 -53 150.5t-142 58.5q-95 0 -153 -58.5t-58 -191.5v-532q0 -133 58 -191.5t153 -58.5q89 0 142 58.5t53 150.5q0 69 70 69h88q77 0 77 -78v-6 q0 -153 -86 -262t-229 -141q25 -70 25 -142q0 -93 -56 -156t-157 -63q-79 0 -127 35q-33 23 -33 70v65q0 29 20.5 38t40.5 -9q34 -29 86 -29q35 0 55.5 27t20.5 66q0 40 -6 83q-193 5 -311.5 120.5t-118.5 328.5z" />
<glyph unicode="&#xce;" horiz-adv-x="555" d="M3 1561q-9 19 5 41l92 143q33 47 105 47h147q72 0 105 -47l92 -143q14 -22 5 -41t-36 -19h-78q-30 0 -47 9.5t-39 35.5l-75 84l-76 -84q-22 -26 -39 -35.5t-47 -9.5h-78q-27 0 -36 19zM160 78v1278q0 78 78 78h79q78 0 78 -78v-1278q0 -78 -78 -78h-79q-78 0 -78 78z" />
<glyph unicode="&#xd6;" horiz-adv-x="1138" d="M125 426v582q0 217 123 332.5t321 115.5q129 0 228 -48.5t158 -151.5t59 -248v-582q0 -217 -123.5 -333t-321.5 -116t-321 116t-123 333zM272 1626v82q0 74 76 74h80q76 0 76 -74v-82q0 -74 -76 -74h-80q-76 0 -76 74zM360 451q0 -250 209 -250t209 250v532 q0 250 -209 250t-209 -250v-532zM635 1626v82q0 74 76 74h80q75 0 75 -74v-82q0 -74 -75 -74h-80q-76 0 -76 74z" />
<glyph unicode="&#xdb;" horiz-adv-x="1179" d="M145 426v930q0 78 78 78h80q78 0 78 -78v-905q0 -250 209 -250t209 250v905q0 78 78 78h79q78 0 78 -78v-930q0 -217 -123 -333t-321 -116t-321.5 116t-123.5 333zM314 1561q-9 19 5 41l93 143q33 47 104 47h148q71 0 104 -47l92 -143q14 -22 5 -41t-36 -19h-77 q-30 0 -47 9.5t-39 35.5l-76 84l-76 -84q-22 -26 -39 -35.5t-47 -9.5h-78q-27 0 -36 19z" />
<glyph unicode="&#xdc;" horiz-adv-x="1179" d="M145 426v930q0 78 78 78h80q78 0 78 -78v-905q0 -250 209 -250t209 250v905q0 78 78 78h79q78 0 78 -78v-930q0 -217 -123 -333t-321 -116t-321.5 116t-123.5 333zM293 1626v82q0 74 76 74h80q75 0 75 -74v-82q0 -74 -75 -74h-80q-76 0 -76 74zM655 1626v82q0 74 76 74 h80q76 0 76 -74v-82q0 -74 -76 -74h-80q-76 0 -76 74z" />
<glyph unicode="&#xe2;" horiz-adv-x="919" d="M92 303v4q0 155 93.5 240.5t265.5 85.5h137v92q0 170 -137 170q-56 0 -86.5 -31t-30.5 -78q0 -63 -64 -63h-84q-73 0 -73 74q0 133 92.5 219t245.5 86q160 0 259 -93.5t99 -269.5v-399q0 -176 -99 -269.5t-259 -93.5q-159 0 -259 87.5t-100 238.5zM188.5 1219 q-10.5 21 4.5 47l106 188q17 30 40 42.5t62 12.5h117q39 0 62.5 -12.5t40.5 -42.5l106 -188q15 -26 4 -47t-39 -21h-63q-32 0 -49.5 11t-36.5 42l-84 127l-82 -127q-19 -31 -36.5 -42t-49.5 -11h-64q-28 0 -38.5 21zM313 326q0 -72 38 -107t100 -35q137 0 137 170v113h-137 q-62 0 -100 -34.5t-38 -106.5z" />
<glyph unicode="&#xe7;" horiz-adv-x="909" d="M111 340v399q0 176 99 269.5t259 93.5q154 0 251 -90.5t97 -241.5q0 -74 -74 -74h-84q-63 0 -63 64q0 62 -34.5 98.5t-92.5 36.5q-137 0 -137 -170v-371q0 -170 137 -170q58 0 92.5 36.5t34.5 98.5q0 64 63 64h84q74 0 74 -74q0 -117 -60 -199.5t-163 -113.5 q27 -68 27 -146q0 -93 -56 -156t-157 -63q-79 0 -127 35q-33 23 -33 70v65q0 29 20.5 38t40.5 -9q34 -29 86 -29q35 0 55.5 27t20.5 66q0 54 -6 83q-159 2 -256.5 95t-97.5 268z" />
<glyph unicode="&#xee;" horiz-adv-x="503" d="M-18.5 1219q-10.5 21 4.5 47l106 188q17 30 40.5 42.5t62.5 12.5h116q39 0 62.5 -12.5t40.5 -42.5l106 -188q15 -26 4 -47t-39 -21h-63q-32 0 -49.5 11t-36.5 42l-84 127l-82 -127q-19 -31 -36.5 -42t-49.5 -11h-64q-28 0 -38.5 21zM141 74v932q0 73 74 73h74 q73 0 73 -73v-932q0 -74 -73 -74h-74q-74 0 -74 74z" />
<glyph unicode="&#xf6;" horiz-adv-x="937" d="M111 340v399q0 176 99 269.5t259 93.5t259 -93.5t99 -269.5v-399q0 -178 -98.5 -270.5t-259.5 -92.5t-259.5 92.5t-98.5 270.5zM172 1292v82q0 74 76 74h80q75 0 75 -74v-82q0 -73 -75 -73h-80q-76 0 -76 73zM332 354q0 -170 137 -170t137 170v371q0 170 -137 170 t-137 -170v-371zM535 1292v82q0 74 75 74h80q76 0 76 -74v-82q0 -73 -76 -73h-80q-75 0 -75 73z" />
<glyph unicode="&#xfb;" horiz-adv-x="974" d="M129 340v666q0 73 74 73h73q74 0 74 -73v-652q0 -170 137 -170q138 0 138 170v652q0 73 73 73h74q74 0 74 -73v-666q0 -175 -99.5 -269t-259.5 -94t-259 93.5t-99 269.5zM215 1219q-11 21 4 47l107 188q17 30 40 42.5t62 12.5h117q39 0 62 -12.5t40 -42.5l107 -188 q15 -26 4 -47t-39 -21h-64q-32 0 -49.5 11t-36.5 42l-84 127l-82 -127q-19 -31 -36.5 -42t-49.5 -11h-63q-28 0 -39 21z" />
<glyph unicode="&#xfc;" horiz-adv-x="974" d="M129 340v666q0 73 74 73h73q74 0 74 -73v-652q0 -170 137 -170q138 0 138 170v652q0 73 73 73h74q74 0 74 -73v-666q0 -175 -99.5 -269t-259.5 -94t-259 93.5t-99 269.5zM190 1292v82q0 74 76 74h80q76 0 76 -74v-82q0 -73 -76 -73h-80q-76 0 -76 73zM553 1292v82 q0 74 76 74h80q75 0 75 -74v-82q0 -73 -75 -73h-80q-76 0 -76 73z" />
<glyph unicode="&#x11e;" horiz-adv-x="1118" d="M125 426v582q0 217 123 332.5t321 115.5q190 0 311 -117.5t121 -300.5v-6q0 -78 -77 -78h-88q-70 0 -70 70q0 92 -53 150.5t-142 58.5q-95 0 -153 -58.5t-58 -191.5v-532q0 -250 209 -250t209 250v63h-110q-78 0 -78 78v67q0 78 78 78h268q78 0 78 -78v-233 q0 -217 -123.5 -333t-321.5 -116t-321 116t-123 333zM309 1731q0 33 12 49t41 16h62q41 0 45 -39q5 -59 96 -59q92 0 97 59q4 39 45 39h61q29 0 41 -16t12 -49q0 -86 -69 -138.5t-187 -52.5t-187 52.5t-69 138.5z" />
<glyph unicode="&#x11f;" horiz-adv-x="954" d="M109 422v317q0 176 99 269.5t259 93.5t259 -93.5t99 -269.5v-755q0 -175 -98.5 -264t-259.5 -89q-159 0 -253.5 84.5t-94.5 210.5q0 74 74 74h83q64 0 64 -63q0 -47 32 -78t95 -31q65 0 101 34.5t36 125.5v182q-71 -86 -203 -86t-212 86t-80 252zM211 1436q0 33 12 49 t41 16h47q60 0 60 -53q0 -39 26.5 -61.5t69.5 -22.5t69.5 22.5t26.5 61.5q0 53 60 53h47q29 0 41 -16t12 -49q0 -106 -69 -172t-187 -66t-187 66t-69 172zM330 461q0 -170 137 -170t137 170v264q0 170 -137 170t-137 -170v-264z" />
<glyph unicode="&#x130;" horiz-adv-x="555" d="M160 78v1278q0 78 78 78h79q78 0 78 -78v-1278q0 -78 -78 -78h-79q-78 0 -78 78zM162 1626v82q0 74 76 74h79q76 0 76 -74v-82q0 -74 -76 -74h-79q-76 0 -76 74z" />
<glyph unicode="&#x131;" horiz-adv-x="503" d="M141 74v932q0 73 74 73h74q73 0 73 -73v-932q0 -74 -73 -74h-74q-74 0 -74 74z" />
<glyph unicode="&#x15e;" horiz-adv-x="1067" d="M102 371v8q0 78 78 78h88q70 0 70 -70v-6q0 -91 54.5 -135.5t142.5 -44.5t142 44t54 134v2q0 63 -34 107.5t-88.5 72.5t-120 53t-131 58.5t-120 79t-88.5 125t-34 186.5v2q0 182 115 286.5t302 104.5t302.5 -105.5t115.5 -287.5v-4q0 -78 -78 -78h-88q-69 0 -69 70v6 q0 84 -50.5 130t-132.5 46t-132 -46t-50 -130v-2q0 -50 21 -88t57 -63.5t82 -47t97.5 -42t102.5 -44t97 -58t82 -78.5t57 -111.5t21 -151.5v-2q0 -152 -83.5 -249.5t-226.5 -127.5q25 -70 25 -142q0 -93 -56 -156t-157 -63q-79 0 -127 35q-33 23 -33 70v65q0 29 21 38t41 -9 q34 -29 86 -29q35 0 55 27t20 66q0 40 -6 83q-188 2 -306 107.5t-118 286.5z" />
<glyph unicode="&#x15f;" horiz-adv-x="882" d="M92 266v13q0 73 74 73h84q63 0 63 -63q0 -52 34 -78.5t93 -26.5q129 0 129 109v4q0 42 -26 73t-67 50.5t-90.5 37.5t-99.5 43.5t-91 59.5t-67 93.5t-26 138.5q0 144 92 226.5t244 82.5q148 0 242 -83.5t94 -207.5q0 -74 -74 -74h-84q-63 0 -63 64q0 44 -30.5 69t-84.5 25 q-114 0 -114 -102v-5q0 -43 26 -74t67 -51t90.5 -39t99.5 -44.5t91 -60.5t67 -95t26 -139q0 -111 -59.5 -185.5t-162.5 -103.5q27 -70 27 -146q0 -93 -56 -156t-157 -63q-79 0 -127 35q-33 23 -33 70v65q0 29 21 38t41 -9q34 -29 86 -29q35 0 55 27t20 66q0 40 -6 83 q-152 0 -250 82.5t-98 206.5z" />
<glyph unicode="&#x2c6;" horiz-adv-x="681" d="M70 1219q-11 21 4 47l106 188q17 30 40.5 42.5t62.5 12.5h116q39 0 62.5 -12.5t40.5 -42.5l106 -188q15 -26 4 -47t-39 -21h-63q-32 0 -49.5 11t-36.5 42l-84 127l-82 -127q-19 -31 -36.5 -42t-49.5 -11h-63q-28 0 -39 21z" />
<glyph unicode="&#x2da;" horiz-adv-x="681" d="M147 1374q0 84 55.5 135.5t137.5 51.5t137 -51.5t55 -135.5t-55 -134t-137 -50t-137.5 50t-55.5 134zM272 1374q0 -27 20 -46t48 -19t47 18.5t19 46.5q0 29 -19 48.5t-47 19.5t-48 -19.5t-20 -48.5z" />
<glyph unicode="&#x2dc;" horiz-adv-x="681" d="M63 1257v70q0 48 33 78q54 49 127 49q50 0 122.5 -34t109.5 -34q42 0 88 46q23 24 49 15t26 -42v-70q0 -49 -32 -78q-54 -49 -127 -49q-49 0 -122 34t-110 34q-43 0 -88 -45q-23 -24 -49.5 -15.5t-26.5 41.5z" />
<glyph unicode="&#x2000;" horiz-adv-x="898" />
<glyph unicode="&#x2001;" horiz-adv-x="1796" />
<glyph unicode="&#x2002;" horiz-adv-x="898" />
<glyph unicode="&#x2003;" horiz-adv-x="1796" />
<glyph unicode="&#x2004;" horiz-adv-x="598" />
<glyph unicode="&#x2005;" horiz-adv-x="449" />
<glyph unicode="&#x2006;" horiz-adv-x="299" />
<glyph unicode="&#x2007;" horiz-adv-x="299" />
<glyph unicode="&#x2008;" horiz-adv-x="224" />
<glyph unicode="&#x2009;" horiz-adv-x="359" />
<glyph unicode="&#x200a;" horiz-adv-x="99" />
<glyph unicode="&#x2010;" horiz-adv-x="665" d="M82 580v86q0 65 65 65h371q66 0 66 -65v-86q0 -66 -66 -66h-371q-65 0 -65 66z" />
<glyph unicode="&#x2011;" horiz-adv-x="665" d="M82 580v86q0 65 65 65h371q66 0 66 -65v-86q0 -66 -66 -66h-371q-65 0 -65 66z" />
<glyph unicode="&#x2012;" horiz-adv-x="665" d="M82 580v86q0 65 65 65h371q66 0 66 -65v-86q0 -66 -66 -66h-371q-65 0 -65 66z" />
<glyph unicode="&#x2013;" horiz-adv-x="1024" d="M61 592v65q0 66 66 66h770q66 0 66 -66v-65q0 -66 -66 -66h-770q-66 0 -66 66z" />
<glyph unicode="&#x2014;" horiz-adv-x="2048" d="M61 592v65q0 66 66 66h1794q66 0 66 -66v-65q0 -66 -66 -66h-1794q-66 0 -66 66z" />
<glyph unicode="&#x2018;" horiz-adv-x="495" d="M131 987l127 397q15 50 66 50h53q23 0 38 -15t11 -41l-66 -401q-12 -74 -84 -74h-94q-34 0 -49 22t-2 62z" />
<glyph unicode="&#x2019;" horiz-adv-x="495" d="M70 958l65 402q12 74 84 74h94q34 0 49.5 -22t2.5 -62l-127 -398q-15 -49 -66 -49h-53q-24 0 -38.5 14.5t-10.5 40.5z" />
<glyph unicode="&#x201a;" horiz-adv-x="495" d="M70 -207l65 402q12 73 84 73h94q34 0 49.5 -22t2.5 -62l-127 -397q-15 -49 -66 -49h-53q-24 0 -38.5 14.5t-10.5 40.5z" />
<glyph unicode="&#x201c;" horiz-adv-x="823" d="M131 987l127 397q15 50 66 50h53q23 0 38 -15t11 -41l-66 -401q-12 -74 -84 -74h-94q-34 0 -49 22t-2 62zM459 987l127 397q15 50 65 50h54q23 0 38 -15t11 -41l-66 -401q-12 -74 -84 -74h-94q-34 0 -49 22t-2 62z" />
<glyph unicode="&#x201d;" horiz-adv-x="823" d="M70 958l65 402q12 74 84 74h94q34 0 49.5 -22t2.5 -62l-127 -398q-15 -49 -66 -49h-53q-24 0 -38.5 14.5t-10.5 40.5zM397 958l66 402q12 74 84 74h94q34 0 49 -22t2 -62l-127 -398q-15 -49 -65 -49h-54q-24 0 -38.5 14.5t-10.5 40.5z" />
<glyph unicode="&#x201e;" horiz-adv-x="823" d="M70 -207l65 402q12 73 84 73h94q34 0 49.5 -22t2.5 -62l-127 -397q-15 -49 -66 -49h-53q-24 0 -38.5 14.5t-10.5 40.5zM397 -207l66 402q12 73 84 73h94q34 0 49 -22t2 -62l-127 -397q-15 -49 -65 -49h-54q-24 0 -38.5 14.5t-10.5 40.5z" />
<glyph unicode="&#x2026;" horiz-adv-x="2048" d="M258 74v121q0 73 74 73h119q73 0 73 -73v-121q0 -74 -73 -74h-119q-74 0 -74 74zM891 74v121q0 73 74 73h118q74 0 74 -73v-121q0 -74 -74 -74h-118q-74 0 -74 74zM1524 74v121q0 73 73 73h119q74 0 74 -73v-121q0 -74 -74 -74h-119q-73 0 -73 74z" />
<glyph unicode="&#x202f;" horiz-adv-x="359" />
<glyph unicode="&#x2039;" horiz-adv-x="708" d="M111 539q0 30 22 67l223 344q30 47 88 47h111q30 0 39.5 -24.5t-8.5 -50.5l-244 -383l244 -383q18 -26 8.5 -51t-39.5 -25h-111q-58 0 -88 47l-223 344q-22 37 -22 68z" />
<glyph unicode="&#x203a;" horiz-adv-x="708" d="M124.5 105q-9.5 25 8.5 51l244 383l-244 383q-18 26 -8.5 50.5t39.5 24.5h110q58 0 88 -47l224 -344q22 -37 22 -67q0 -31 -22 -68l-224 -344q-30 -47 -88 -47h-110q-30 0 -39.5 25z" />
<glyph unicode="&#x205f;" horiz-adv-x="449" />
<glyph unicode="&#x20ac;" d="M72 528v66q0 57 59 57h59v131h-59q-59 0 -59 58v65q0 58 59 58h59v104q0 181 115.5 285t300.5 104q184 0 300 -101t116 -268q0 -75 -76 -75h-82q-32 0 -50.5 17.5t-18.5 49.5v2q0 70 -53 115t-136 45q-87 0 -137.5 -45t-50.5 -135v-98h217q59 0 59 -58v-65q0 -58 -59 -58 h-217v-131h217q59 0 59 -57v-66q0 -57 -59 -57h-217v-98q0 -90 50.5 -135t137.5 -45q83 0 136 44.5t53 114.5v2q0 32 18.5 50t50.5 18h82q76 0 76 -76q0 -167 -116 -268t-300 -101q-185 0 -300.5 104.5t-115.5 285.5v104h-59q-59 0 -59 57z" />
<glyph unicode="&#x2122;" horiz-adv-x="1499" d="M23 1333v60q0 41 40 41h363q41 0 41 -41v-60q0 -41 -41 -41h-107v-587q0 -41 -40 -41h-68q-41 0 -41 41v587h-107q-40 0 -40 41zM569 705v516q0 109 60.5 172t165.5 63q134 0 186 -100q56 100 188 100q105 0 165.5 -63t60.5 -172v-516q0 -41 -41 -41h-68q-41 0 -41 41 v516q0 48 -25.5 71t-68.5 23t-68.5 -23t-25.5 -71v-516q0 -41 -41 -41h-68q-41 0 -41 41v516q0 48 -25.5 71t-68.5 23t-68.5 -23t-25.5 -71v-516q0 -41 -41 -41h-68q-41 0 -41 41z" />
<glyph unicode="&#x25fc;" horiz-adv-x="1075" d="M0 0v1075h1075v-1075h-1075z" />
</font>
</defs>
</svg>
